<svg id="donwload-icon" xmlns="http://www.w3.org/2000/svg" viewBox="0 0 471.2 471.2"><style>.st0{fill:#FF6F20;} .st1{fill:#FFFFFF;}</style><circle id="fondo" class="st0" cx="235.6" cy="234.5" r="232.5"/><path id="bandeja" class="st1" d="M366.4 232.4c-4.4 0-8 3.5-8 8v72.4c0 19.7-16 35.6-35.6 35.6H148.3c-19.7.1-35.6-16-35.6-35.6v-73.5c0-4.4-3.5-8-8-8s-8 3.5-8 8v73.5c0 28.5 23.2 51.6 51.6 51.6h174.5c28.5 0 51.6-23.2 51.6-51.6v-72.4c0-4.4-3.6-8-8-8z"/><path id="flecha" class="st1" d="M230 301.1c1.5 1.5 3.6 2.4 5.6 2.4s4.1-.8 5.6-2.4l50.6-50.6c3.1-3.1 3.1-8.1 0-11.3-3.1-3.1-8.1-3.1-11.3 0l-36.9 37V115c0-4.4-3.5-8-8-8-4.4 0-8 3.5-8 8v161.4l-37-37c-3.1-3.1-8.1-3.1-11.3 0-3.1 3.1-3.1 8.1 0 11.3l50.7 50.4z"/></svg>