<svg id="Capa_1" xmlns="http://www.w3.org/2000/svg" viewBox="0 0 15 19"><style>.st0{fill:#717C8B;stroke:#717C8B;stroke-width:0.2;}</style><path class="st0" d="M14 4.4c0-.1 0-.2-.1-.3l-3.1-3c-.1-.1-.2-.1-.3-.1H1.9c-.5 0-.9.4-.9.8v15.3c0 .5.4.9.9.9h11.3c.5 0 .9-.4.9-.8L14 4.4zm-3.1-2L12.6 4h-1.7V2.4zm2.3 14.8H1.9V1.8h8.2V4c0 .5.4.8.9.8h2.3c-.1 0-.1 12.4-.1 12.4z"/><path class="st0" d="M11.1 6.4H3.9c-.2 0-.4.2-.4.4s.2.4.4.4h7.2c.2 0 .4-.2.4-.4s-.2-.4-.4-.4zm0 2.4H3.9c-.2 0-.4.2-.4.4s.2.4.4.4h7.2c.2 0 .4-.2.4-.4s-.2-.4-.4-.4zm0 2.5H3.9c-.2 0-.4.2-.4.4s.2.4.4.4h7.2c.2 0 .4-.2.4-.4 0-.3-.2-.5-.4-.4zm-3.6 2.4H3.9c-.2 0-.4.2-.4.4s.2.4.4.4h3.6c.2 0 .4-.2.4-.4 0-.3-.2-.5-.4-.4z"/></svg>