<svg xmlns="http://www.w3.org/2000/svg" width="94" height="35" viewBox="0 0 94 35"><g fill="none" fill-rule="evenodd"><path fill="#183D7B" d="M42.086 16.762c0-.964.174-1.308-.915-1.882l-.753-.368v-.665h7.512v.665l-.767.3c-1.136.46-1.136.584-1.112 1.95l.012 5.498-.278.264c-1.31.333-4.37 1.16-7.13 1.16-6.328 0-9.446-3.25-9.446-10.273 0-7.552 4.405-10.823 10.19-10.823 1.552 0 4.37 0 6.328 1.642.65.54.707 1.146.707 1.387 0 .46-.093.55-.185.735L44.845 9.05h-.522c0-1.332-1.564-4.88-5.633-4.88-4.718 0-4.95 3.26-4.95 8.77 0 4.82.51 9.16 6.144 9.16 1.82 0 2.156-.953 2.202-2.02V16.76m7.72 5.853l1.345-.54c1.102-.424 1.102-1.216 1.102-2.972V6.443c0-.975-.278-1.457-1.043-1.973l-1.23-.815V2.99h5.576l.336.206c.614.815 1.89 3.007 3.605 5.302l5.912 7.966c.243.332.37.482.486.482.243 0 .243-.3.243-.85v-9.63c0-1.388-.024-1.663-1.218-2.145l-1.75-.665V2.99h7.013v.665l-.893.333c-1.31.516-1.564.815-1.564 2.812v11.936c0 1.825.034 3.673.034 4.304l-.208.24h-1.716l-.336-.24c-.278-.333-1.867-2.548-3.49-4.694l-7.163-9.48c-.395-.517-.58-.792-.73-.792-.28 0-.28.31-.28.734v10.835c0 1.457 0 1.917 1.287 2.34l1.808.632v.666h-7.13v-.665m22.177 0l1.344-.447c1.01-.333 1.043-.884 1.043-2.79V6.284c0-1.446 0-1.813-1.044-2.146l-1.344-.482V2.99h10.143c3.547 0 7.024.757 7.024 5.36 0 4.21-3.177 6.817-8.138 6.817-.21 0-.487-.035-.672-.035l-.453-1.09.244-.24c2.227-.058 4.927-.965 4.545-5.223C84.373 5.26 83.4 4.64 80.653 4.64c-1.867 0-1.994.275-1.994 1.033V19.38c0 2.03-.036 2.455 1.192 2.788l1.59.447v.666h-9.46v-.665m-42.774 3.887h64.468v-.5H29.208z"/><path fill="#FF6F20" d="M16.62 13.032c0 1.87-1.53 3.386-3.432 3.386-1.89 0-3.42-1.515-3.42-3.386 0-1.87 1.53-3.386 3.42-3.386 1.9 0 3.43 1.515 3.43 3.386m-9.122-5.66H.1l1.496 4.535h3.686v-.01c3.733 0 6.758-2.997 6.77-6.704v-3.64L7.496.074v7.3M7.473 18.68v7.31l4.58-1.47v-3.65h-.013c0-3.695-3.025-6.69-6.77-6.702H1.596L.1 18.678h7.373m11.417.012h7.396l-1.507-4.522h-3.687c-3.732.012-6.758 3.007-6.758 6.703v3.64l4.556 1.48v-7.3m.012-11.294V.086l-4.567 1.468v3.65c.012 3.696 3.037 6.692 6.77 6.703h3.674l1.506-4.51h-7.384"/><path fill="#183D7B" d="M91.99 3.712v.276h-.302v.55h.302v.402l-.082-.126h-.22v.826h-.36V3.712h.662zm0 2.342c-.72 0-1.3-.574-1.3-1.366 0-.804.58-1.366 1.3-1.366V2.99c-.95 0-1.716.757-1.716 1.698 0 .93.765 1.687 1.716 1.687v-.32zm0-1.114v-.4H92c.22 0 .394-.035.394-.287 0-.23-.21-.264-.383-.264h-.02v-.277h.056c.464 0 .72.16.72.563 0 .332-.198.493-.51.516l.52.85h-.37l-.417-.7zm0-1.618c.706 0 1.286.562 1.286 1.366 0 .792-.58 1.366-1.286 1.366v.32c.938 0 1.703-.756 1.703-1.686a1.7 1.7 0 0 0-1.703-1.7v.334zm-61.228 31.67c-.724 0-1.173-.203-1.34-.296-.15-.172-.25-.733-.25-1.264.054-.1.235-.11.3-.023.156.506.684 1.223 1.353 1.223.583 0 .85-.397.85-.787 0-.632-.598-1.006-1.07-1.24-.567-.28-1.19-.75-1.19-1.52-.008-.882.686-1.49 1.828-1.49.26 0 .582.03.897.125.103.03.174.047.268.063.063.172.142.593.142 1.115-.04.094-.236.102-.307.024-.134-.398-.473-.967-1.04-.967-.52 0-.803.335-.803.725 0 .36.323.686.716.89l.52.272c.49.257 1.11.71 1.11 1.567 0 .96-.795 1.582-1.984 1.582m8.41-3.244c0 .22.01.234.22.234h.545c.41 0 .504-.054.583-.43l.04-.194c.054-.062.25-.062.29.008-.015.25-.023.53-.023.827 0 .296.008.577.024.826-.04.07-.236.077-.29.007l-.04-.195c-.08-.374-.173-.437-.583-.437h-.543c-.213 0-.22.008-.22.242v.928c0 .36.03.608.125.74.102.14.25.204.826.204.685 0 .953-.025 1.386-.906.063-.086.26-.055.292.04-.032.404-.22 1.036-.33 1.247a58.632 58.632 0 0 0-1.82-.023H38.63c-.378 0-.764.008-1.355.024-.063-.046-.063-.233 0-.272l.37-.055c.355-.054.402-.1.402-.82v-2.907c0-.71-.047-.757-.402-.827l-.197-.04c-.07-.046-.063-.226.016-.273.37.016.756.024 1.134.024h1.67c.504 0 .953-.007 1.055-.023.008.125.063.687.103 1.21-.032.085-.213.1-.292.03-.086-.273-.197-.507-.3-.616-.15-.147-.385-.24-.77-.24h-.63c-.26 0-.26.015-.26.304v1.364m12.04 2.238c0 .328.016.484.166.515.032.032.024.165-.024.188-.133.023-.338.047-.55.117-.276.086-.954.187-1.395.187-.534 0-.99-.055-1.55-.273-.922-.368-1.552-1.233-1.552-2.356 0-.975.44-1.832 1.386-2.355.536-.29 1.174-.414 1.843-.414.874 0 1.308.187 1.56.187.023.234.03.78.11 1.256-.032.084-.244.092-.3.014-.25-.733-.748-1.1-1.48-1.1-1.252 0-1.86 1.03-1.86 2.262 0 1.115.387 1.778.9 2.12.377.25.787.297 1.08.297.447 0 .542-.086.542-.592v-.49c0-.42-.05-.47-.427-.523l-.346-.047c-.087-.047-.087-.226 0-.273.56.016.945.024 1.33.024.38 0 .765-.007 1.032-.023.062.047.062.226 0 .273l-.18.03c-.238.04-.285.118-.285.54v.436m5.59-3.142c0-.726-.046-.772-.4-.843l-.197-.038c-.063-.046-.07-.218.015-.265a28.095 28.095 0 0 0 2.3 0c.063.047.063.22 0 .265l-.19.032c-.353.062-.4.124-.4.85v1.8c0 .913.102 1.92 1.3 1.92 1.007 0 1.314-.874 1.314-1.942v-.944c0-.632-.03-1.224-.118-1.427-.07-.163-.245-.21-.458-.25l-.212-.038c-.063-.062-.048-.218 0-.265.425.016.732.024 1.055.024.29 0 .583-.007.882-.023.047.047.063.203 0 .265l-.142.032c-.205.047-.354.093-.425.257-.087.204-.118.796-.118 1.428v.873c0 .734-.07 1.405-.504 1.88-.347.367-.922.562-1.56.562-.598 0-1.134-.094-1.56-.437-.41-.335-.582-.912-.582-1.762v-1.95m11.12 1.13c0 .274.024.298.49.298.282 0 .448-.07.597-.218.134-.132.284-.382.284-.842 0-.702-.418-1.154-1.032-1.154-.323 0-.338.023-.338.398v1.52zm-1.08-.99c0-.78-.014-.865-.345-.91l-.212-.032c-.08-.04-.08-.233.016-.273.59-.04 1.205-.07 1.953-.07.67 0 1.244.102 1.544.28.458.266.694.656.694 1.155 0 .694-.473.99-.835 1.17-.08.04-.08.086-.04.17.52 1.046.842 1.63 1.22 1.95a.97.97 0 0 0 .528.22c.07.038.07.155.032.202-.126.054-.378.07-.623.07-.724 0-1.18-.257-1.528-.82a9.7 9.7 0 0 1-.615-1.207c-.094-.21-.22-.273-.417-.273-.276 0-.29.015-.29.17v.96c0 .718.046.772.4.835l.213.038c.056.04.056.226 0 .273a28.676 28.676 0 0 0-2.306 0c-.064-.046-.064-.233 0-.272l.212-.04c.354-.062.402-.116.402-.834v-2.76zm11.334-1.028c-.968 0-1.488.897-1.488 2.2 0 .95.34 2.48 1.622 2.48 1.032 0 1.433-1 1.433-2.263 0-1.333-.59-2.417-1.567-2.417zm2.828 2.316c0 1.7-1.15 2.722-2.844 2.722-1.582 0-2.732-1.03-2.732-2.66 0-1.543 1.165-2.736 2.81-2.736 1.64 0 2.766 1.092 2.766 2.675zm6.26 2.722c-.724 0-1.173-.203-1.338-.296-.15-.172-.252-.733-.252-1.264.055-.1.236-.11.3-.023.157.506.684 1.223 1.353 1.223.584 0 .852-.397.852-.787 0-.632-.598-1.006-1.07-1.24-.568-.28-1.19-.75-1.19-1.52-.008-.882.685-1.49 1.827-1.49.26 0 .582.03.897.125.102.03.173.047.267.063.064.172.142.593.142 1.115-.04.094-.236.102-.307.024-.134-.398-.473-.967-1.04-.967-.52 0-.804.335-.804.725 0 .36.323.686.717.89l.52.272c.488.257 1.11.71 1.11 1.567 0 .96-.795 1.582-1.985 1.582"/></g></svg>