<?xml version="1.0" encoding="utf-8"?>
<!-- Generator: Adobe Illustrator 21.1.0, SVG Export Plug-In . SVG Version: 6.00 Build 0)  -->
<svg version="1.1" id="Capa_1" xmlns="http://www.w3.org/2000/svg" xmlns:xlink="http://www.w3.org/1999/xlink" x="0px" y="0px"
	 viewBox="0 0 8 5" style="enable-background:new 0 0 8 5;" xml:space="preserve">
<style type="text/css">
	.st0{fill:#FF6F20;stroke:#FF6F20;}
</style>
<path class="st0" d="M4,1.2l3,3.2c0.1,0.1,0.3,0.1,0.4,0c0.1-0.1,0.1-0.3,0-0.4c0,0,0,0,0,0L4.2,0.6c0,0,0,0,0,0
	C4.2,0.5,4.1,0.5,4,0.5c-0.1,0-0.2,0-0.2,0.1c0,0,0,0,0,0L0.6,4c-0.1,0.1-0.1,0.3,0,0.4c0,0,0,0,0,0c0.1,0.1,0.3,0.1,0.4,0L4,1.2z"
	/>
</svg>
