<?xml version="1.0" encoding="utf-8"?>
<!-- Generator: Adobe Illustrator 21.1.0, SVG Export Plug-In . SVG Version: 6.00 Build 0)  -->
<svg version="1.1" id="Capa_1" xmlns="http://www.w3.org/2000/svg" xmlns:xlink="http://www.w3.org/1999/xlink" x="0px" y="0px"
	 viewBox="0 0 15 19" style="enable-background:new 0 0 15 19;" xml:space="preserve">
<style type="text/css">
	.st0{fill:#717C8B;stroke:#717C8B;stroke-width:0.2;}
</style>
<g>
	<path class="st0" d="M14,4.4c0-0.1,0-0.2-0.1-0.3l-3.1-3C10.7,1,10.6,1,10.5,1H1.9C1.4,1,1,1.4,1,1.8c0,0,0,0,0,0v15.3
		C1,17.6,1.4,18,1.9,18h11.3c0.5,0,0.9-0.4,0.9-0.8L14,4.4L14,4.4L14,4.4z M10.9,2.4L12.6,4h-1.7c0,0,0,0,0,0c0,0,0,0,0,0V2.4
		L10.9,2.4z M13.2,17.2C13.2,17.2,13.2,17.2,13.2,17.2l-11.3,0c0,0,0,0,0,0c0,0,0,0,0,0V1.8c0,0,0,0,0,0h8.2V4
		c0,0.5,0.4,0.8,0.9,0.8h2.3C13.2,4.8,13.2,17.2,13.2,17.2z"/>
	<path class="st0" d="M11.1,6.4H3.9c-0.2,0-0.4,0.2-0.4,0.4c0,0.2,0.2,0.4,0.4,0.4h7.2c0.2,0,0.4-0.2,0.4-0.4c0,0,0,0,0,0
		C11.5,6.6,11.3,6.4,11.1,6.4z M11.1,8.8H3.9C3.7,8.8,3.5,9,3.5,9.2c0,0.2,0.2,0.4,0.4,0.4h7.2c0.2,0,0.4-0.2,0.4-0.4c0,0,0,0,0,0
		C11.5,9,11.3,8.8,11.1,8.8z M11.1,11.3H3.9c-0.2,0-0.4,0.2-0.4,0.4c0,0.2,0.2,0.4,0.4,0.4h7.2c0.2,0,0.4-0.2,0.4-0.4c0,0,0,0,0,0
		C11.5,11.4,11.3,11.2,11.1,11.3z M7.5,13.7H3.9c-0.2,0-0.4,0.2-0.4,0.4c0,0.2,0.2,0.4,0.4,0.4h3.6c0.2,0,0.4-0.2,0.4-0.4
		c0,0,0,0,0,0C7.9,13.8,7.7,13.6,7.5,13.7C7.5,13.7,7.5,13.7,7.5,13.7z"/>
</g>
</svg>
